<svg viewBox="0 0 100 100" fill="none" stroke="currentColor"><circle cx="50" cy="50" r="38" stroke-width="3"/><path d="M 33 20 C 43 30, 43 70, 33 80 M 67 20 C 57 30, 57 70, 67 80" stroke-width="2.5"/><path d="M 28 25 l 6 2 M 31 30 l 5 1 M 33 35 l 5 1 M 34 40 l 5 0 M 35 50 l 5 0 M 34 60 l 5 0 M 31 70 l 5 -1 M 28 75 l 6 -2" stroke-width="1.8"/><path d="M 72 25 l -6 2 M 69 30 l -5 1 M 67 35 l -5 1 M 66 40 l -5 0 M 65 50 l -5 0 M 66 60 l -5 0 M 67 70 l -5 -1 M 69 75 l -5 -2" stroke-width="1.8"/></svg>