<?xml version="1.0" encoding="UTF-8"?>
<svg id="_圖層_1" data-name="圖層 1" xmlns="http://www.w3.org/2000/svg" viewBox="0 0 360 167.24">
  <defs>
    <style>
      .cls-1 {
        fill: #fff;
      }

      .cls-2 {
        fill: #040000;
      }
    </style>
  </defs>
  <rect class="cls-2" width="360" height="167.24"/>
  <g>
    <path class="cls-1" d="M120.53,48.45l-26.45-15.27c-2.01-1.16-4.26-1.74-6.51-1.74s-4.5,.58-6.51,1.74l-26.45,15.27c-4.03,2.33-6.51,6.63-6.51,11.28v30.55c0,4.65,2.48,8.95,6.51,11.28l26.45,15.27c2.01,1.16,4.26,1.74,6.51,1.74s4.5-.58,6.51-1.74l26.45-15.27c4.03-2.33,6.51-6.63,6.51-11.28v-30.55c0-4.65-2.48-8.95-6.51-11.28Zm1.3,41.83c0,2.78-1.5,5.38-3.91,6.77l-26.45,15.27c-1.19,.68-2.54,1.05-3.91,1.05s-2.72-.36-3.91-1.05l-26.45-15.27c-2.41-1.39-3.91-3.98-3.91-6.77v-30.55c0-2.78,1.5-5.38,3.91-6.77l26.45-15.27c1.19-.68,2.54-1.05,3.91-1.05s2.72,.36,3.91,1.05l26.45,15.27c2.41,1.39,3.91,3.98,3.91,6.77v30.55Z"/>
    <path class="cls-1" d="M80.43,65.49c-.24-1.59-.36-3.19-.36-4.81,0-3.05,.8-6.05,2.32-8.67,.77-1.34,1.89-2.45,3.22-3.22,.59-.34,1.26-.52,1.95-.52s1.36,.18,1.95,.52c1.34,.77,2.45,1.89,3.22,3.22,1.52,2.62,2.32,5.62,2.32,8.67,0,5.68-1.49,11.26-4.32,16.15-.7,1.22-1.48,2.39-2.34,3.5,1.11,1.35,2.34,2.61,3.67,3.76,1.17-1.47,2.24-3.02,3.18-4.66,3.28-5.68,5.02-12.16,5.02-18.75,0-3.96-1.04-7.86-3.02-11.28-1.23-2.12-3-3.89-5.12-5.12-1.38-.8-2.96-1.22-4.56-1.22s-3.18,.42-4.56,1.22c-2.12,1.23-3.89,3-5.12,5.12-1.98,3.41-3.02,7.31-3.02,11.28,0,2.06,.17,4.1,.5,6.12,1.66-.55,3.35-.99,5.07-1.31Z"/>
    <path class="cls-1" d="M82.89,85.93c-1.25,1-2.58,1.91-3.98,2.71-2.64,1.52-5.64,2.33-8.67,2.33-1.54,0-3.06-.41-4.4-1.18-.59-.34-1.08-.83-1.43-1.43-.34-.6-.52-1.27-.52-1.95,0-1.54,.41-3.06,1.18-4.4,1.51-2.63,3.71-4.82,6.35-6.34,4.92-2.84,10.5-4.34,16.15-4.33,1.41,0,2.81,.09,4.2,.27,.62-1.64,1.09-3.33,1.42-5.06-1.86-.28-3.74-.43-5.63-.43-6.56,0-13.04,1.73-18.75,5.03-3.43,1.98-6.29,4.84-8.26,8.25-1.22,2.12-1.87,4.54-1.88,7,0,1.6,.42,3.17,1.22,4.56s1.96,2.54,3.34,3.34c2.13,1.22,4.54,1.87,7,1.87,3.94,0,7.84-1.04,11.28-3.02,1.78-1.03,3.47-2.2,5.05-3.49-1.31-1.16-2.53-2.41-3.67-3.73Z"/>
    <path class="cls-1" d="M106.31,71.16c-1.78-1.03-3.64-1.9-5.55-2.62-.35,1.71-.82,3.4-1.4,5.04,1.49,.59,2.94,1.28,4.34,2.09,2.64,1.52,4.84,3.72,6.35,6.34,.77,1.34,1.18,2.86,1.18,4.4,0,.68-.18,1.36-.52,1.95s-.84,1.09-1.43,1.43c-1.34,.77-2.86,1.18-4.4,1.18-3.03,0-6.03-.8-8.67-2.33-4.92-2.84-9-6.92-11.82-11.82-.71-1.22-1.33-2.48-1.86-3.78-1.73,.29-3.43,.72-5.09,1.29,.68,1.75,1.5,3.45,2.44,5.09,3.27,5.68,8.02,10.43,13.73,13.73,3.43,1.98,7.33,3.03,11.28,3.02,2.45,0,4.87-.65,7-1.87,1.38-.8,2.54-1.95,3.34-3.34s1.22-2.96,1.22-4.56c0-2.45-.65-4.87-1.87-7-1.97-3.42-4.82-6.27-8.26-8.25Z"/>
    <g>
      <path class="cls-1" d="M222.12,47.25v46.89c0,4.32,3.5,7.81,7.81,7.81V55.07c0-4.32-3.5-7.81-7.81-7.81Z"/>
      <path class="cls-1" d="M293.76,65.98c-3.88,0-7.47,1.07-10.42,3.02v-13.93c0-4.32-3.5-7.81-7.81-7.81v46.89c0,4.32,3.5,7.81,7.81,7.81v-2.79c2.95,2.06,6.54,3.27,10.42,3.27,10.07,0,18.23-8.16,18.23-18.23s-8.16-18.23-18.23-18.23Zm0,28.65c-5.75,0-10.42-4.66-10.42-10.42s4.67-10.42,10.42-10.42,10.42,4.66,10.42,10.42-4.67,10.42-10.42,10.42Z"/>
      <path class="cls-1" d="M216.65,84.16s0,0,0,0c-.03-10.97-8.18-18.18-18.23-18.18s-18.23,8.16-18.23,18.23,8.16,18.23,18.23,18.23c4.41,0,8.45-1.56,11.6-4.17,1.38,2.21,3.83,3.68,6.63,3.68v-17.75s0,0,0,0c0,0,0,0,0,0v-.05Zm-7.81,.05c0,5.75-4.67,10.42-10.42,10.42s-10.42-4.66-10.42-10.42,4.67-10.42,10.42-10.42,10.42,4.66,10.42,10.42h0Z"/>
      <path class="cls-1" d="M270.05,84.16s0,0,0,0c-.03-10.97-8.18-18.18-18.23-18.18s-18.23,8.16-18.23,18.23,8.16,18.23,18.23,18.23c4.41,0,8.45-1.56,11.6-4.17,1.38,2.21,3.83,3.68,6.63,3.68v-17.75s0,0,0,0c0,0,0,0,0,0v-.05Zm-7.81,.05c0,5.75-4.67,10.42-10.42,10.42s-10.42-4.66-10.42-10.42,4.67-10.42,10.42-10.42,10.42,4.66,10.42,10.42h0Z"/>
      <path class="cls-1" d="M168.72,47.25v21.74c-2.95-1.94-6.54-3.02-10.42-3.02-10.07,0-18.23,8.16-18.23,18.23s8.16,18.23,18.23,18.23c4.41,0,8.45-1.56,11.6-4.17,1.38,2.21,3.83,3.68,6.63,3.68V55.07c0-4.32-3.5-7.81-7.81-7.81Zm-10.42,47.38c-5.75,0-10.42-4.66-10.42-10.42s4.67-10.42,10.42-10.42,10.42,4.66,10.42,10.42-4.67,10.42-10.42,10.42Z"/>
    </g>
  </g>
</svg>