<?xml version="1.0" encoding="utf-8"?>
<!-- Generator: Adobe Illustrator 24.1.2, SVG Export Plug-In . SVG Version: 6.00 Build 0)  -->
<svg version="1.1" id="圖層_1" xmlns="http://www.w3.org/2000/svg" xmlns:xlink="http://www.w3.org/1999/xlink" x="0px" y="0px"
	 width="114.1px" height="16px" viewBox="0 0 114.1 16" style="enable-background:new 0 0 114.1 16;" xml:space="preserve">
<style type="text/css">
	.st0{fill:#FFFFFF;}
</style>
<g>
	<g>
		<path class="st0" d="M10.4,0.5H4.6C2.1,0.5,0,2.5,0,5.1v5.8c0,2.6,2.1,4.6,4.6,4.6h5.8c2.6,0,4.6-2.1,4.6-4.6V5.1
			C15.1,2.5,13,0.5,10.4,0.5z M13.6,10.3c0,2.1-1.7,3.8-3.8,3.8H5.2c-2.1,0-3.8-1.7-3.8-3.8V5.7c0-2.1,1.7-3.8,3.8-3.8h4.7
			c2.1,0,3.8,1.7,3.8,3.8V10.3z"/>
		<path class="st0" d="M7.7,4.1c-2.2,0-4,1.8-4,4c0,2.2,1.8,4,4,4c2.2,0,4-1.8,4-4C11.7,5.8,9.9,4.1,7.7,4.1z M7.7,10.4
			c-1.3,0-2.4-1.1-2.4-2.4c0-1.3,1.1-2.4,2.4-2.4c1.3,0,2.4,1.1,2.4,2.4C10.1,9.3,9.1,10.4,7.7,10.4z"/>
		<path class="st0" d="M11.4,3c-0.6,0-1,0.5-1,1c0,0.6,0.5,1,1,1c0.6,0,1-0.5,1-1C12.4,3.4,12,3,11.4,3z"/>
	</g>
	<g>
		<g>
			<path class="st0" d="M44.4,11.3h-0.7V2.9h0.7V11.3z"/>
			<path class="st0" d="M53.8,11.3h-0.7l-5.5-7.1l0,7.1h-0.7V2.9h0.7l5.5,7.1V2.9h0.7V11.3z"/>
			<path class="st0" d="M61.8,4.4c-0.7-0.5-1.5-0.8-2.6-0.8c-1.3,0-2.3,0.6-2.3,1.7c0,0.8,0.6,1.3,2.1,1.5l0.9,0.1
				C61.3,7,62.4,7.6,62.4,9c0,1.6-1.5,2.4-3.3,2.4c-1.3,0-2.5-0.5-3.3-1l0.4-0.6c0.6,0.5,1.7,0.9,2.8,0.9c1.4,0,2.5-0.6,2.5-1.7
				c0-0.9-0.7-1.4-2.1-1.5l-1-0.1c-1.5-0.2-2.5-0.9-2.5-2.2c0-1.5,1.4-2.4,3.1-2.4c1.3,0,2.3,0.4,3,0.9L61.8,4.4z"/>
			<path class="st0" d="M70.2,3.6h-3v7.7h-0.7V3.6h-3V2.9h6.8V3.6z"/>
			<path class="st0" d="M77.9,11.3h-0.8l-1-2.5h-4.4l-1,2.5H70l3.5-8.4h0.9L77.9,11.3z M72.1,8.2h3.8L74,3.7L72.1,8.2z"/>
			<path class="st0" d="M86.3,4.3l-0.5,0.5C85.1,4,84.1,3.6,83,3.6c-2,0-3.5,1.4-3.5,3.6c0,2.1,1.5,3.6,3.5,3.6
				c1.9,0,3.1-1.2,3.2-3.1h-2.8V6.9H87C87,7,87,7,87,7.1c0,2.5-1.6,4.3-4,4.3c-2.2,0-4.3-1.6-4.3-4.3c0-2.5,1.9-4.3,4.3-4.3
				C84.3,2.8,85.5,3.4,86.3,4.3z"/>
			<path class="st0" d="M92.2,2.9c1.9,0,2.9,0.8,2.9,2.3c0,1.4-1.1,2.3-2.9,2.3h-0.3l3.2,3.7h-0.9L91,7.6h-1.3v3.7H89V2.9H92.2z
				 M89.8,3.6v3.3h2.5c1.4,0,2.1-0.6,2.1-1.7c0-1.1-0.8-1.6-2.1-1.6H89.8z"/>
			<path class="st0" d="M104,11.3h-0.8l-1-2.5h-4.4l-1,2.5h-0.8l3.5-8.4h0.9L104,11.3z M98.1,8.2h3.8L100,3.7L98.1,8.2z"/>
			<path class="st0" d="M114.1,11.3h-0.7V3.8l-3.2,6.6h-0.8l-3.2-6.5v7.5h-0.7V2.9h1.1l3.2,6.5l3.2-6.5h1.1V11.3z"/>
		</g>
	</g>
</g>
</svg>
