<?xml version="1.0" encoding="utf-8"?>
<!-- Generator: Adobe Illustrator 24.1.2, SVG Export Plug-In . SVG Version: 6.00 Build 0)  -->
<svg version="1.1" id="圖層_1" xmlns="http://www.w3.org/2000/svg" xmlns:xlink="http://www.w3.org/1999/xlink" x="0px" y="0px"
	 width="205.7px" height="18.6px" viewBox="0 0 205.7 18.6" style="enable-background:new 0 0 205.7 18.6;" xml:space="preserve">
<style type="text/css">
	.st0{fill:#FFFFFF;}
</style>
<g>
	<g>
		<path class="st0" d="M17.2,18.4h-1.7l-2.2-5.3H3.9l-2.2,5.3H0L7.6,0.2h2L17.2,18.4z M4.5,11.6h8.2L8.6,1.8L4.5,11.6z"/>
		<path class="st0" d="M27.5,0.2c3.8,0,6.4,1.3,6.4,4.7c0,2.2-1.2,3.6-3.1,4.1c2.1,0.5,3.5,2,3.5,4.4c0,3.5-2.6,5-6.5,5h-7.3V0.2
			H27.5z M22.1,1.7v6.7h5.4c2.8,0,4.8-0.8,4.8-3.4c0-2.6-2.1-3.3-4.8-3.3H22.1z M22.1,9.9v7h5.7c3,0,4.9-0.9,4.9-3.5
			s-1.9-3.5-4.9-3.5H22.1z"/>
		<path class="st0" d="M56.2,9.3c0,5.5-4,9.3-9.3,9.3c-5.3,0-9.3-3.8-9.3-9.3c0-5.5,4-9.3,9.3-9.3C52.2,0,56.2,3.8,56.2,9.3z
			 M39.2,9.3c0,4.6,3.4,7.8,7.7,7.8c4.3,0,7.7-3.1,7.7-7.8c0-4.6-3.4-7.8-7.7-7.8C42.6,1.5,39.2,4.7,39.2,9.3z"/>
		<path class="st0" d="M75,11.3c0,4.9-3.3,7.3-7.4,7.3s-7.4-2.4-7.4-7.3V0.2h1.6v11c0,4,2.5,5.9,5.8,5.9c3.3,0,5.8-1.9,5.8-5.9v-11
			H75V11.3z"/>
		<path class="st0" d="M92.7,1.7h-6.6v16.7h-1.6V1.7H78V0.2h14.7V1.7z"/>
		<path class="st0" d="M116.8,11.3c0,4.9-3.3,7.3-7.4,7.3c-4.1,0-7.4-2.4-7.4-7.3V0.2h1.6v11c0,4,2.5,5.9,5.8,5.9
			c3.3,0,5.8-1.9,5.8-5.9v-11h1.6V11.3z"/>
		<path class="st0" d="M133.8,3.3c-1.4-1-3.3-1.8-5.7-1.8c-2.9,0-5.1,1.4-5.1,3.6c0,1.8,1.3,2.9,4.4,3.3l2,0.2
			c3.2,0.4,5.6,1.6,5.6,4.7c0,3.5-3.2,5.3-7.2,5.3c-2.7,0-5.4-1-7-2.3l0.9-1.3c1.3,1,3.6,2,6.2,2c3.1,0,5.5-1.2,5.5-3.7
			c0-2-1.6-2.9-4.6-3.3l-2.1-0.2c-3.3-0.4-5.3-1.9-5.3-4.7c0-3.4,3-5.2,6.7-5.2c2.8,0,4.9,0.9,6.5,2L133.8,3.3z"/>
	</g>
</g>
</svg>
