<?xml version="1.0" encoding="utf-8"?>
<!-- Generator: Adobe Illustrator 24.1.3, SVG Export Plug-In . SVG Version: 6.00 Build 0)  -->
<svg version="1.1" id="圖層_1" xmlns="http://www.w3.org/2000/svg" xmlns:xlink="http://www.w3.org/1999/xlink" x="0px" y="0px"
	 width="227.2px" height="30.5px" viewBox="0 0 227.2 30.5" style="enable-background:new 0 0 227.2 30.5;" xml:space="preserve">
<style type="text/css">
	.st0{fill:#3E3A39;}
</style>
<g>
	<g>
		<path class="st0" d="M20.9,5.8C18.6,4.2,15.6,3,11.7,3C7,3,3.5,5.1,3.5,8.8c0,2.9,2.2,4.7,7.2,5.3l3.2,0.4c5.2,0.6,9,2.6,9,7.5
			c0,5.7-5.2,8.6-11.5,8.6C7,30.5,2.6,28.9,0,26.9l1.4-2c2.1,1.6,5.9,3.3,10,3.3c5,0,8.9-2,8.9-5.9c0-3.2-2.6-4.7-7.5-5.3l-3.3-0.4
			c-5.4-0.6-8.6-3-8.6-7.5c0-5.4,4.8-8.5,10.9-8.5c4.6,0,8,1.4,10.5,3.2L20.9,5.8z"/>
		<path class="st0" d="M42.5,12.7h-9.1v10.8c0,3.3,1.8,4.9,4.4,4.9c1.7,0,3.3-0.6,4.4-1.5l1.1,1.8c-1.4,1.2-3.4,2-5.7,2
			c-4.1,0-6.6-2.3-6.6-7.1V12.7h-4.5v-2.2H31V4h2.4v6.4h9.1V12.7z"/>
		<path class="st0" d="M66.5,30.2h-2.4v-3.8c-1.6,2.5-4.2,4.1-7.8,4.1c-5.5,0-9.9-4.3-9.9-10.2s4.3-10.2,9.9-10.2
			c3.6,0,6.2,1.7,7.8,4.1v-3.8h2.4V30.2z M48.8,20.4c0,4.5,3.2,7.9,7.7,7.9c4.5,0,7.7-3.4,7.7-7.9s-3.2-8-7.7-8
			C52,12.4,48.8,15.9,48.8,20.4z"/>
		<path class="st0" d="M86.2,10.9l-0.6,2.3c-1-0.5-2.3-0.8-3.5-0.8c-3.3,0-5.6,2.7-5.6,6.7v11.1h-2.4V10.5h2.4v3.4
			c1.3-2.3,3.5-3.7,6.1-3.7C83.9,10.1,85.2,10.4,86.2,10.9z"/>
		<path class="st0" d="M127.1,5.5l-1.9,1.8c-2.2-2.7-5.6-4.4-9.5-4.4c-7,0-12.4,5.1-12.4,12.6s5.4,12.6,12.3,12.6
			c6.7,0,11-4.2,11.4-11h-10v-2.4h12.7c0,0.3,0,0.5,0,0.7c0,8.6-5.5,15.1-14.2,15.1c-7.8,0-14.9-5.7-14.9-15c0-8.8,6.5-15,15.1-15
			C120.3,0.5,124.4,2.4,127.1,5.5z"/>
		<path class="st0" d="M155.2,20.4c0,5.8-4.4,10.2-10.3,10.2s-10.2-4.4-10.2-10.2s4.4-10.2,10.2-10.2S155.2,14.6,155.2,20.4z
			 M137.2,20.4c0,4.6,3.4,7.9,7.8,7.9c4.5,0,7.8-3.3,7.8-7.9s-3.4-8-7.8-8C140.5,12.4,137.2,15.8,137.2,20.4z"/>
		<path class="st0" d="M180.3,20.4c0,5.8-4.4,10.2-10.3,10.2s-10.2-4.4-10.2-10.2s4.4-10.2,10.2-10.2S180.3,14.6,180.3,20.4z
			 M162.2,20.4c0,4.6,3.4,7.9,7.8,7.9c4.5,0,7.8-3.3,7.8-7.9s-3.4-8-7.8-8C165.6,12.4,162.2,15.8,162.2,20.4z"/>
		<path class="st0" d="M202.5,14.3V0h2.4v30.2h-2.4v-3.8c-1.6,2.5-4.2,4.1-7.8,4.1c-5.5,0-9.9-4.3-9.9-10.2s4.3-10.2,9.9-10.2
			C198.2,10.2,200.9,11.8,202.5,14.3z M187.2,20.4c0,4.5,3.2,7.9,7.7,7.9c4.5,0,7.7-3.4,7.7-7.9s-3.2-8-7.7-8
			C190.4,12.4,187.2,15.9,187.2,20.4z"/>
		<path class="st0" d="M225.6,14.2c-1.3-0.9-3.9-2-6.7-2c-3.1,0-5.2,1.3-5.2,3.6c0,1.8,1.4,2.8,4.5,3.2l2.5,0.3
			c4.1,0.5,6.5,2.2,6.5,5.3c0,3.7-3.4,5.9-8.5,5.9c-2.9,0-5.8-0.8-8.1-2.5l1.1-1.8c1.5,1.2,3.6,2.2,7,2.2c3.6,0,6-1.2,6-3.7
			c0-1.8-1.5-2.9-4.6-3.3l-2.5-0.3c-4.5-0.5-6.4-2.5-6.4-5.3c0-3.6,3.1-5.8,7.7-5.8c3.1,0,6,0.9,7.7,2.2L225.6,14.2z"/>
	</g>
</g>
</svg>
