<?xml version="1.0" encoding="utf-8"?>
<!-- Generator: Adobe Illustrator 24.1.2, SVG Export Plug-In . SVG Version: 6.00 Build 0)  -->
<svg version="1.1" id="圖層_1" xmlns="http://www.w3.org/2000/svg" xmlns:xlink="http://www.w3.org/1999/xlink" x="0px" y="0px"
	 width="192.3px" height="40.4px" viewBox="0 0 192.3 40.4" style="enable-background:new 0 0 192.3 40.4;" xml:space="preserve">
<style type="text/css">
	.st0{fill:#FFFFFF;}
</style>
<g>
	<g>
		<g>
			<path class="st0" d="M113.2,5.4l-2-4.3h5l1.3,2.7c0.4,0.8-0.2,1.6-1,1.6H113.2z M135,24.5h-12.7c-1.7,0-3.4-0.5-4.8-1.6l0,0
				l-1,1.6h-5.2l1.2-2c0.9-1.6,1.4-3.4,1.4-5.2v-0.9h-2.2v-0.7c0-1.1,0.3-2.2,0.8-3.1l1.7-3h-2.7V7.1h6.6v2.8l-1.8,4h1.8v6.7l0,0
				c1.3,0.9,2.8,1.4,4.3,1.4h2.3v-1.6h-5.5V18h5.5v-1.1H120v-2.4h4.6v-1.1h-5.2V11h1.9l-0.8-2.4h-1.4V6.1h5.4V4.7h-4.7V2.4h4.7V0.6
				h4.8v1.8h5v1.1c0,0.7-0.6,1.2-1.2,1.2h-3.7v1.4h5.6v2.4h-1.4l-0.9,2.4h1.9v2.4h-5.2v1.1h4.6v2.4h-4.6V18h5.6v2.4h-5.6v1.6h5.6
				V24.5z M124.3,8.5L125,11h3.9l0.9-2.4H124.3z"/>
			<path class="st0" d="M140.2,24.5v-2.7h3.8l1.4-9.6h-4.6V9.5h5l0.8-5.5h-6.4V1.4h23v0.5c0,1.2-1,2.1-2.1,2.1h-9.3L151,9.5h9.1
				c1,0,1.8,0.8,1.8,1.8v10.5h1.8v2.7H140.2z M156.8,12.2h-6.2l-1.4,9.6h7.6V12.2z"/>
			<path class="st0" d="M188.7,9.9V8c0.7,0.2,1.2,0.3,1.5,0.4c0.4,0.1,1,0.2,1.6,0.3l0.4,0.1V6.3c0-0.8-0.5-1.4-1.3-1.6
				c-1.3-0.3-3.4-0.8-4.4-1.4c-1.6-0.8-2.9-1.9-3.9-3.1L182.6,0h-4l-0.1,0.2c-1,1.4-2.3,2.5-3.9,3.3c-1,0.6-3,0.9-4.3,1.2
				c-0.8,0.1-1.4,0.8-1.4,1.6v2.4l0.4-0.1c0.6-0.1,1.2-0.2,1.8-0.3c0.4-0.1,0.9-0.2,1.4-0.3v1.9h6.2V12h-9.2v3.2h9.2v6h-2.3
				c-0.4-1.4-0.8-2.7-1.5-4l-0.1-0.2h-2.9c-0.4,0-0.7,0.4-0.5,0.8c0.4,1,1.1,2.6,1.3,3.4h-3.8v3.3h23.4v-3.3h-3.5l1.3-3.4
				c0.1-0.4-0.1-0.8-0.5-0.8h-3l-1.6,4.2h-2.5v-6h9.2V12h-9.2V9.9H188.7z M179.8,4.2c0.5-0.5,1.3-0.5,1.8,0c0.5,0.5,1.1,1,1.8,1.4
				c0.6,0.4,1.3,0.8,2,1.1H176c0.7-0.4,1.4-0.8,2-1.2C178.7,5.1,179.2,4.6,179.8,4.2z"/>
			<g>
				<path class="st0" d="M103.5,17.9c-0.6-0.9-0.7-1.5-0.2-2.5l2.8-8.4h1V5.5c0-1-0.8-1.7-1.7-1.7h-5.5l1.1-2.6H98l-3.3,8.1h2.8
					l0.6-1.5C98.4,7.3,98.8,7,99.3,7h2.8l-2.6,7l-1.9-3h-2.9v1.4l2,3.1c0.9,1.5,0.9,2.6,0.5,3.6l-2.5,5.3h4l1.9-3.9l2.5,3.9h4.7
					L103.5,17.9z"/>
				<rect x="94.7" y="9.3" class="st0" width="0.3" height="0"/>
				<path class="st0" d="M92,19.3v-6.9h1.6V9.9H92V4h3V3.3c0-0.9-0.8-1.7-1.7-1.7H83.1V4h5.2v16.2l-1.9,0.4V7.4h-1.6
					c-0.7,0-1.3,0.6-1.3,1.3v12.4l-0.7,0.1v2.5l11.8-2.6v-2.6L92,19.3z"/>
			</g>
		</g>
	</g>
	<g>
		<path class="st0" d="M34,3h-9.5l-1.5,0.1l-7.8,9.1h6.4l-5.3,16.4H6.8c-1.4,0-2.7,0.9-3.2,2.3L0,37.7h16.6c3.8,0,7.1-2.4,8.3-6l1-3
			l5.3-16.4h-4.9L34,3z"/>
		<path class="st0" d="M52,3h-6.8c-1.6,0-2.9,1-3.4,2.5l-2.1,6.6l-6.5,20.3l0,0c-1.5,4.8-3.6,5.3-3.6,5.3h1.9h2h4.1
			c2.1,0,3.9-1.4,4.6-3.3l7-22.2h9.6c1.4,0,2.7-0.9,3.2-2.3L65.5,3H52z"/>
	</g>
	<g>
		<g>
			<path class="st0" d="M94.9,37.5c0,0.3,0.1,0.6,0.3,0.7c0.2,0.2,0.5,0.3,0.9,0.3c0.4,0,0.6-0.1,0.9-0.2c0.2-0.2,0.3-0.4,0.3-0.6
				c0-0.2-0.1-0.4-0.3-0.6c-0.2-0.2-0.6-0.4-1.3-0.6c-0.1,0-0.2-0.1-0.3-0.1c-0.7-0.3-1.3-0.5-1.7-0.8c-0.3-0.2-0.6-0.5-0.7-0.9
				c-0.2-0.4-0.3-0.8-0.3-1.2c0-0.9,0.3-1.6,0.9-2.1c0.6-0.5,1.4-0.8,2.3-0.8c1.1,0,1.9,0.3,2.5,0.8c0.6,0.5,0.9,1.2,0.9,2.2l-2.2,0
				c0-0.4-0.1-0.6-0.3-0.8c-0.2-0.2-0.5-0.3-0.8-0.3c-0.3,0-0.6,0.1-0.8,0.2c-0.2,0.2-0.3,0.4-0.3,0.7c0,0.4,0.5,0.8,1.4,1.1
				c0.2,0.1,0.3,0.1,0.4,0.2c0.1,0,0.1,0.1,0.3,0.1c0.9,0.3,1.5,0.7,1.8,1c0.2,0.2,0.4,0.5,0.5,0.8c0.1,0.3,0.2,0.6,0.2,1
				c0,0.9-0.3,1.7-1,2.2c-0.6,0.6-1.5,0.8-2.6,0.8c-1,0-1.8-0.3-2.4-0.8c-0.6-0.5-0.9-1.3-0.9-2.2L94.9,37.5z"/>
			<path class="st0" d="M102.9,40.2v-9.6h2.4v9.6H102.9z"/>
			<path class="st0" d="M109.3,40.2v-9.6h2.5l3.1,4.8c0.2,0.3,0.3,0.5,0.5,0.8c0.1,0.3,0.3,0.5,0.4,0.8c-0.1-0.3-0.1-0.7-0.2-1
				c0-0.3-0.1-0.7-0.1-1v-4.4h2.4v9.6h-2.4l-3.3-4.9c-0.1-0.2-0.2-0.4-0.4-0.7c-0.1-0.3-0.3-0.5-0.4-0.9c0.1,0.3,0.2,0.6,0.2,0.9
				c0,0.3,0.1,0.6,0.1,0.9v4.6H109.3z"/>
			<path class="st0" d="M128.3,33.5c-0.3-0.3-0.6-0.5-0.9-0.7c-0.3-0.1-0.7-0.2-1.1-0.2c-0.8,0-1.4,0.3-1.9,0.8
				c-0.5,0.5-0.7,1.2-0.7,2c0,0.8,0.2,1.5,0.7,2c0.5,0.5,1.1,0.8,1.9,0.8c0.4,0,0.8-0.1,1.1-0.2c0.3-0.2,0.6-0.4,0.9-0.7l1.6,1.6
				c-0.5,0.5-1,0.9-1.6,1.1c-0.6,0.2-1.3,0.4-2,0.4c-0.7,0-1.4-0.1-2-0.4c-0.6-0.2-1.1-0.6-1.6-1.1c-0.5-0.5-0.8-1-1.1-1.6
				c-0.2-0.6-0.4-1.3-0.4-2c0-0.7,0.1-1.4,0.4-2c0.2-0.6,0.6-1.1,1.1-1.6c0.5-0.5,1-0.8,1.6-1c0.6-0.2,1.3-0.4,2-0.4
				c0.7,0,1.4,0.1,2,0.4c0.6,0.2,1.1,0.6,1.6,1.1L128.3,33.5z"/>
			<path class="st0" d="M133.2,40.2v-9.6h5.4v1.9h-3v2h3v1.9h-3v2h3v1.9H133.2z"/>
			<path class="st0" d="M150.3,40.2v-6.7l-1.8,0.9v-2.1l3.8-1.9h0.2v9.7H150.3z"/>
			<path class="st0" d="M160.2,36.5c0,0-0.1,0-0.1,0c-0.1,0-0.1,0-0.1,0c-0.9,0-1.6-0.3-2.1-0.8c-0.5-0.5-0.8-1.2-0.8-2.1
				c0-0.9,0.3-1.7,0.9-2.3c0.6-0.6,1.4-0.9,2.4-0.9c1,0,1.8,0.3,2.3,0.9c0.6,0.6,0.9,1.3,0.9,2.3c0,0.5-0.1,0.9-0.2,1.4
				c-0.2,0.5-0.4,1-0.9,1.6l-2.3,3.6h-2.5L160.2,36.5z M160.3,34.8c0.3,0,0.6-0.1,0.8-0.3c0.2-0.2,0.3-0.5,0.3-0.9
				c0-0.4-0.1-0.6-0.3-0.9c-0.2-0.2-0.4-0.3-0.8-0.3c-0.3,0-0.6,0.1-0.8,0.3c-0.2,0.2-0.3,0.5-0.3,0.9s0.1,0.6,0.3,0.9
				C159.8,34.7,160,34.8,160.3,34.8z"/>
			<path class="st0" d="M167,40.2l3.3-7.6h-3.4v-2h6.4v0.3l-3.9,9.3H167z"/>
			<path class="st0" d="M179.5,40.2v-2H176v-1.8l2.9-5.7h2.8v5.7h0.8v1.8h-0.8v2H179.5z M177.8,36.4h1.8v-2.7c0-0.2,0-0.3,0-0.5
				c0-0.2,0-0.4,0.1-0.6L177.8,36.4z"/>
		</g>
	</g>
</g>
</svg>
