<?xml version="1.0" encoding="utf-8"?>
<!-- Generator: Adobe Illustrator 24.1.3, SVG Export Plug-In . SVG Version: 6.00 Build 0)  -->
<svg version="1.1" id="圖層_1" xmlns="http://www.w3.org/2000/svg" xmlns:xlink="http://www.w3.org/1999/xlink" x="0px" y="0px"
	 width="9.4px" height="43.4px" viewBox="0 0 9.4 43.4" style="enable-background:new 0 0 9.4 43.4;" xml:space="preserve">
<style type="text/css">
	.st0{fill:#FFFFFF;}
</style>
<g>
	<path class="st0" d="M1.7,0C1.5,0.3,1.3,0.6,1.1,1.1S0.9,2,0.9,2.4c0,1.3,0.5,2,1.4,2c0.3,0,0.5-0.1,0.7-0.2s0.4-0.3,0.5-0.6
		S4,3,4.4,2.3c0.5-1,0.9-1.6,1.3-1.9S6.5,0,7,0c0.7,0,1.3,0.3,1.8,0.9s0.7,1.3,0.7,2.2c0,0.9-0.1,1.5-0.3,1.9H7.9
		C8.3,4.5,8.5,3.9,8.5,3c0-0.6-0.1-1-0.4-1.4s-0.6-0.5-1-0.5c-0.3,0-0.5,0.1-0.7,0.2S6,1.6,5.8,1.8S5.4,2.4,5.1,3
		C4.7,3.9,4.3,4.6,3.8,4.9S2.9,5.4,2.4,5.4c-0.8,0-1.4-0.3-1.8-0.8S0,3.3,0,2.2C0,1.9,0.1,1.5,0.2,1s0.2-0.8,0.4-1H1.7z"/>
	<path class="st0" d="M0.5,13.4C0.2,12.8,0,11.9,0,10.9c0-1.3,0.4-2.3,1.3-3.1s1.9-1.2,3.3-1.2C5.9,6.7,7.1,7.1,8,8s1.4,2,1.4,3.3
		c0,0.9-0.1,1.6-0.4,2.1H7.9c0.4-0.7,0.5-1.4,0.5-2.2c0-1.1-0.4-1.9-1.1-2.6c-0.7-0.6-1.7-1-2.8-1c-1.1,0-2,0.3-2.6,0.9
		s-1,1.4-1,2.4c0,0.9,0.2,1.7,0.6,2.4H0.5z"/>
	<path class="st0" d="M0.2,21.7v-1.2L2.7,19c0.5-0.3,0.9-0.6,1.1-0.9S4,17.5,4,17.2v-0.9H0.2v-1h9.1V18c0,0.8-0.2,1.5-0.6,2
		s-1,0.7-1.8,0.7c-1.3,0-2.1-0.7-2.4-2h0c-0.1,0.2-0.3,0.5-0.4,0.6s-0.5,0.4-1,0.7L0.2,21.7z M8.3,16.3H5v1.5c0,0.6,0.2,1,0.5,1.3
		s0.8,0.5,1.3,0.5c0.5,0,0.9-0.2,1.2-0.5s0.4-0.8,0.4-1.4V16.3z"/>
	<path class="st0" d="M4.6,22.3c1.5,0,2.6,0.4,3.5,1.2s1.3,1.9,1.3,3.2c0,1.2-0.4,2.3-1.3,3s-1.9,1.1-3.3,1.1
		c-1.4,0-2.6-0.4-3.5-1.2S0,27.9,0,26.5c0-1.3,0.4-2.3,1.3-3.1S3.2,22.3,4.6,22.3z M4.7,23.3c-1.1,0-2,0.3-2.7,0.9s-1.1,1.4-1.1,2.3
		c0,1,0.3,1.8,1,2.4s1.6,0.9,2.7,0.9c1.2,0,2.1-0.3,2.8-0.8s1-1.3,1-2.4c0-1-0.4-1.8-1.1-2.4S5.8,23.3,4.7,23.3z"/>
	<path class="st0" d="M0.2,37.3v-4.7h9.1v1H1.1v3.7H0.2z"/>
	<path class="st0" d="M0.2,43.4v-4.7h9.1v1H1.1v3.7H0.2z"/>
</g>
</svg>
