<?xml version="1.0" encoding="utf-8"?>
<!-- Generator: Adobe Illustrator 24.2.3, SVG Export Plug-In . SVG Version: 6.00 Build 0)  -->
<svg version="1.1" id="圖層_1" xmlns="http://www.w3.org/2000/svg" xmlns:xlink="http://www.w3.org/1999/xlink" x="0px" y="0px"
	 width="205.7px" height="18.6px" viewBox="0 0 205.7 18.6" style="enable-background:new 0 0 205.7 18.6;" xml:space="preserve">
<style type="text/css">
	.st0{fill:#FFFFFF;}
</style>
<g>
	<g>
		<path class="st0" d="M4,10H1.6v8.4H0V0.2h1.6v8.3H4l8-8.3h2.1l-8.8,9l9.3,9.2h-2.2L4,10z"/>
		<path class="st0" d="M32.7,18.4h-1.4L19.4,2.9l0,15.5h-1.6V0.2h1.4l11.9,15.5V0.2h1.6V18.4z"/>
		<path class="st0" d="M55.7,9.3c0,5.5-4,9.3-9.3,9.3s-9.3-3.8-9.3-9.3c0-5.5,4-9.3,9.3-9.3S55.7,3.8,55.7,9.3z M38.7,9.3
			c0,4.6,3.4,7.8,7.7,7.8c4.3,0,7.7-3.1,7.7-7.8c0-4.6-3.4-7.8-7.7-7.8C42.1,1.5,38.7,4.7,38.7,9.3z"/>
		<path class="st0" d="M78.8,18.4h-1.9L71.4,2.3L66,18.4h-1.9L57.9,0.2h1.7l5.4,16.4l5.5-16.4h1.8l5.5,16.4l5.5-16.4H85L78.8,18.4z"
			/>
		<path class="st0" d="M100.9,18.4H88.5V0.2h1.6v16.7h10.8V18.4z"/>
		<path class="st0" d="M116.7,18.4h-12.5V0.2h12.4v1.5h-10.9v6.8h10.5V10h-10.5v6.9h10.9V18.4z"/>
		<path class="st0" d="M128.2,0.2c6.1,0,9.8,3.5,9.8,9.1c0,5.6-3.8,9.1-9.8,9.1h-6.6V0.2H128.2z M123.2,1.7v15.2h5.1
			c5.3,0,8.2-3,8.2-7.6c0-4.6-2.9-7.6-8.2-7.6H123.2z"/>
		<path class="st0" d="M157.7,3.1l-1.2,1.1c-1.4-1.7-3.5-2.7-5.9-2.7c-4.3,0-7.7,3.1-7.7,7.8c0,4.6,3.4,7.8,7.6,7.8
			c4.2,0,6.8-2.6,7-6.8h-6.2V8.8h7.9c0,0.2,0,0.3,0,0.4c0,5.3-3.4,9.4-8.8,9.4c-4.8,0-9.2-3.5-9.2-9.3c0-5.5,4-9.3,9.3-9.3
			C153.5,0,156.1,1.2,157.7,3.1z"/>
		<path class="st0" d="M176.2,18.4h-12.5V0.2h12.4v1.5h-10.9v6.8h10.5V10h-10.5v6.9h10.9V18.4z"/>
	</g>
</g>
</svg>
