<?xml version="1.0" encoding="utf-8"?>
<!-- Generator: Adobe Illustrator 24.1.3, SVG Export Plug-In . SVG Version: 6.00 Build 0)  -->
<svg version="1.1" id="圖層_1" xmlns="http://www.w3.org/2000/svg" xmlns:xlink="http://www.w3.org/1999/xlink" x="0px" y="0px"
	 width="185.1px" height="30.5px" viewBox="0 0 185.1 30.5" style="enable-background:new 0 0 185.1 30.5;" xml:space="preserve">
<style type="text/css">
	.st0{fill:#3E3A39;}
</style>
<g>
	<g>
		<path class="st0" d="M27.8,30.2h-2.8l-3.6-8.6H6.2l-3.6,8.6H0L12.3,0.8h3.1L27.8,30.2z M7.3,19.2h13.2L13.9,3.3L7.3,19.2z"/>
		<path class="st0" d="M52.6,20.4c0,5.9-4.3,10.2-9.9,10.2c-3.6,0-6.2-1.6-7.8-4.1v3.8h-2.4V0h2.4v14.2c1.6-2.4,4.2-4.1,7.8-4.1
			C48.3,10.2,52.6,14.5,52.6,20.4z M34.7,20.4c0,4.5,3.2,7.9,7.7,7.9c4.6,0,7.7-3.5,7.7-7.9c0-4.5-3.2-8-7.7-8
			C38,12.4,34.7,15.8,34.7,20.4z"/>
		<path class="st0" d="M77.6,20.4c0,5.8-4.4,10.2-10.3,10.2s-10.2-4.4-10.2-10.2s4.4-10.2,10.2-10.2S77.6,14.6,77.6,20.4z
			 M59.5,20.4c0,4.6,3.4,7.9,7.8,7.9c4.5,0,7.8-3.3,7.8-7.9s-3.4-8-7.8-8C62.9,12.4,59.5,15.8,59.5,20.4z"/>
		<path class="st0" d="M101.2,22.1c0,5.6-4,8.5-8.9,8.5c-4.9,0-8.9-2.9-8.9-8.5V10.5h2.4v11.4c0,4.2,2.7,6.4,6.5,6.4
			c3.8,0,6.5-2.2,6.5-6.4V10.5h2.4V22.1z"/>
		<path class="st0" d="M122,12.7h-9.1v10.8c0,3.3,1.8,4.9,4.4,4.9c1.7,0,3.3-0.6,4.4-1.5l1.1,1.8c-1.4,1.2-3.4,2-5.7,2
			c-4.1,0-6.6-2.3-6.6-7.1V12.7h-4.5v-2.2h4.5V4h2.4v6.4h9.1V12.7z"/>
		<path class="st0" d="M162.6,18.8c0,7.9-5.3,11.8-11.9,11.8s-11.9-3.9-11.9-11.8v-18h2.6v17.8c0,6.5,4,9.5,9.3,9.5
			c5.3,0,9.3-3,9.3-9.5V0.8h2.6V18.8z"/>
		<path class="st0" d="M183.6,14.2c-1.3-0.9-3.9-2-6.7-2c-3.1,0-5.2,1.3-5.2,3.6c0,1.8,1.4,2.8,4.5,3.2l2.5,0.3
			c4.1,0.5,6.5,2.2,6.5,5.3c0,3.7-3.4,5.9-8.5,5.9c-2.9,0-5.8-0.8-8.1-2.5l1.1-1.8c1.5,1.2,3.6,2.2,7,2.2c3.6,0,6-1.2,6-3.7
			c0-1.8-1.5-2.9-4.6-3.3l-2.5-0.3c-4.5-0.5-6.4-2.5-6.4-5.3c0-3.6,3.1-5.8,7.7-5.8c3.1,0,6,0.9,7.7,2.2L183.6,14.2z"/>
	</g>
</g>
</svg>
