<?xml version="1.0" encoding="utf-8"?>
<!-- Generator: Adobe Illustrator 24.1.2, SVG Export Plug-In . SVG Version: 6.00 Build 0)  -->
<svg version="1.1" id="圖層_1" xmlns="http://www.w3.org/2000/svg" xmlns:xlink="http://www.w3.org/1999/xlink" x="0px" y="0px"
	 width="114.1px" height="16px" viewBox="0 0 114.1 16" style="enable-background:new 0 0 114.1 16;" xml:space="preserve">
<style type="text/css">
	.st0{fill:#FFFFFF;}
</style>
<g>
	<path class="st0" d="M12.3,0.5H2.7C1.2,0.5,0,1.7,0,3.2v9.6c0,1.5,1.2,2.7,2.7,2.7h4.9V9.7H6.5V7.6h1.2V6.3c0-1,0.5-2.4,2.4-2.4
		l1.8,0v2h-1.3c-0.2,0-0.5,0.1-0.5,0.6v1.2h1.8l-0.2,2.1h-1.6v5.8h2.3c1.5,0,2.7-1.2,2.7-2.7V3.2C15.1,1.7,13.9,0.5,12.3,0.5z"/>
	<g>
		<g>
			<path class="st0" d="M49.3,9.3h-4.8v3.9h-0.7V4.8h5.7v0.7h-5v3.1h4.8V9.3z"/>
			<path class="st0" d="M58.1,13.2h-0.8l-1-2.5h-4.4l-1,2.5h-0.8l3.5-8.4h0.9L58.1,13.2z M52.2,10.1H56l-1.9-4.5L52.2,10.1z"/>
			<path class="st0" d="M66.6,6.4L66,6.8c-0.6-0.9-1.6-1.4-2.8-1.4c-2,0-3.5,1.4-3.5,3.6c0,2.1,1.5,3.6,3.5,3.6
				c1.2,0,2.2-0.5,2.8-1.4l0.6,0.4c-0.7,1-1.9,1.7-3.4,1.7c-2.5,0-4.3-1.8-4.3-4.3c0-2.5,1.8-4.3,4.3-4.3
				C64.6,4.7,65.9,5.4,66.6,6.4z"/>
			<path class="st0" d="M74.3,13.2h-5.8V4.8h5.7v0.7h-5v3.1h4.9v0.7h-4.9v3.2h5V13.2z"/>
			<path class="st0" d="M79.8,4.8c1.7,0,3,0.6,3,2.2c0,1-0.6,1.7-1.4,1.9c1,0.2,1.6,0.9,1.6,2c0,1.6-1.2,2.3-3,2.3h-3.4V4.8H79.8z
				 M77.3,5.5v3.1h2.5C81.1,8.6,82,8.2,82,7c0-1.2-0.9-1.5-2.2-1.5H77.3z M77.3,9.3v3.2h2.6c1.4,0,2.3-0.4,2.3-1.6
				c0-1.2-0.9-1.6-2.3-1.6H77.3z"/>
			<path class="st0" d="M93.1,9c0,2.5-1.8,4.3-4.3,4.3s-4.3-1.8-4.3-4.3c0-2.5,1.8-4.3,4.3-4.3S93.1,6.5,93.1,9z M85.2,9
				c0,2.1,1.5,3.6,3.5,3.6c2,0,3.5-1.4,3.5-3.6c0-2.1-1.5-3.6-3.5-3.6C86.8,5.4,85.2,6.9,85.2,9z"/>
			<path class="st0" d="M103.2,9c0,2.5-1.8,4.3-4.3,4.3c-2.5,0-4.3-1.8-4.3-4.3c0-2.5,1.8-4.3,4.3-4.3C101.3,4.7,103.2,6.5,103.2,9z
				 M95.4,9c0,2.1,1.5,3.6,3.5,3.6c2,0,3.5-1.4,3.5-3.6c0-2.1-1.5-3.6-3.5-3.6C96.9,5.4,95.4,6.9,95.4,9z"/>
			<path class="st0" d="M107,9.3h-1.1v3.9h-0.7V4.8h0.7v3.8h1.1l3.7-3.8h0.9l-4,4.1l4.3,4.3h-1L107,9.3z"/>
		</g>
	</g>
</g>
</svg>
