<?xml version="1.0" encoding="utf-8"?>
<!-- Generator: Adobe Illustrator 24.1.2, SVG Export Plug-In . SVG Version: 6.00 Build 0)  -->
<svg version="1.1" id="圖層_1" xmlns="http://www.w3.org/2000/svg" xmlns:xlink="http://www.w3.org/1999/xlink" x="0px" y="0px"
	 width="322.6px" height="23.4px" viewBox="0 0 322.6 23.4" style="enable-background:new 0 0 322.6 23.4;" xml:space="preserve">
<style type="text/css">
	.st0{fill:#FFFFFF;}
</style>
<g>
	<g>
		<path class="st0" d="M25.9,23.2h-2.4l-6.7-20l-6.7,20H7.6L0,0.6h2.1L8.8,21l6.8-20.3h2.2L24.7,21l6.8-20.3h2L25.9,23.2z"/>
		<path class="st0" d="M49.2,15.5c0,0.3,0,0.5,0,0.8H36.5c0.3,3.5,2.8,5.5,5.9,5.5c2.1,0,3.8-0.8,5.1-2.2l1,1.3
			c-1.9,1.9-4,2.5-6.2,2.5c-4.4,0-7.6-3.2-7.6-7.8c0-4.6,3.2-7.8,7.5-7.8C46.1,7.8,49.1,11,49.2,15.5z M36.5,14.7h10.8
			C47,11.5,44.9,9.4,42,9.4C39,9.4,36.8,11.6,36.5,14.7z"/>
		<path class="st0" d="M69.2,15.6c0,4.5-3.3,7.8-7.6,7.8c-2.7,0-4.8-1.2-6-3.1v2.9h-1.8V0h1.8v10.9c1.2-1.9,3.2-3.1,6-3.1
			C65.9,7.8,69.2,11.1,69.2,15.6z M55.5,15.6c0,3.5,2.5,6.1,5.9,6.1c3.5,0,5.9-2.7,5.9-6.1c0-3.4-2.4-6.1-5.9-6.1
			C58,9.5,55.5,12.1,55.5,15.6z"/>
		<path class="st0" d="M83.9,10.9c-1-0.7-3-1.5-5.1-1.5c-2.4,0-4,1-4,2.7c0,1.4,1.1,2.2,3.4,2.4l1.9,0.2c3.2,0.4,5,1.7,5,4.1
			c0,2.9-2.6,4.5-6.5,4.5c-2.2,0-4.5-0.6-6.2-1.9l0.9-1.4c1.2,0.9,2.8,1.7,5.4,1.7c2.7,0,4.6-0.9,4.6-2.8c0-1.4-1.2-2.3-3.5-2.5
			l-1.9-0.2c-3.4-0.4-4.9-1.9-4.9-4c0-2.8,2.4-4.4,5.9-4.4c2.4,0,4.6,0.7,5.9,1.7L83.9,10.9z"/>
		<path class="st0" d="M91.7,2.6c0,0.7-0.6,1.3-1.3,1.3c-0.7,0-1.3-0.6-1.3-1.3c0-0.7,0.6-1.3,1.3-1.3C91.2,1.3,91.7,1.8,91.7,2.6z
			 M91.3,23.2h-1.8V8h1.8V23.2z"/>
		<path class="st0" d="M107.4,9.7h-7v8.2c0,2.6,1.4,3.7,3.4,3.7c1.3,0,2.5-0.5,3.4-1.2l0.9,1.4c-1.1,0.9-2.6,1.5-4.4,1.5
			c-3.2,0-5-1.8-5-5.4V9.7h-3.5V8h3.5V3.1h1.8V8h7V9.7z"/>
		<path class="st0" d="M125,15.5c0,0.3,0,0.5,0,0.8h-12.7c0.3,3.5,2.8,5.5,5.9,5.5c2.1,0,3.8-0.8,5.1-2.2l1,1.3
			c-1.9,1.9-4,2.5-6.2,2.5c-4.4,0-7.6-3.2-7.6-7.8c0-4.6,3.2-7.8,7.5-7.8C121.9,7.8,125,11,125,15.5z M112.3,14.7h10.8
			c-0.3-3.1-2.4-5.3-5.3-5.3C114.8,9.4,112.7,11.6,112.3,14.7z"/>
		<path class="st0" d="M152.3,23.2h-1.8v-2.9c-1.2,1.9-3.2,3.2-6,3.2c-4.2,0-7.6-3.3-7.6-7.8c0-4.5,3.3-7.8,7.6-7.8
			c2.8,0,4.8,1.3,6,3.2V8h1.8V23.2z M138.8,15.6c0,3.4,2.5,6.1,5.9,6.1c3.4,0,5.9-2.6,5.9-6.1c0-3.5-2.5-6.1-5.9-6.1
			C141.3,9.5,138.8,12.2,138.8,15.6z"/>
		<path class="st0" d="M167.5,8.3l-0.5,1.8c-0.7-0.4-1.8-0.6-2.7-0.6c-2.5,0-4.3,2-4.3,5.1v8.5h-1.8V8h1.8v2.6
			c1-1.8,2.7-2.8,4.7-2.8C165.7,7.8,166.6,7.9,167.5,8.3z"/>
		<path class="st0" d="M182.7,10.1l-1.2,1.2c-1.2-1.2-2.7-1.9-4.4-1.9c-3.3,0-5.8,2.6-5.8,6.1c0,3.5,2.5,6.1,5.8,6.1
			c1.8,0,3.3-0.8,4.5-1.9l1.1,1.3c-1.4,1.5-3.3,2.3-5.6,2.3c-4.6,0-7.8-3.3-7.8-7.8s3.2-7.8,7.8-7.8C179.4,7.8,181.4,8.6,182.7,10.1
			z"/>
		<path class="st0" d="M188.9,10.6c1.2-2,3.3-2.9,5.4-2.9c3.8,0,6.4,2.3,6.4,6.1v9.3h-1.8v-8.7c0-3.1-1.8-4.9-4.9-4.9
			c-2.8,0-5.1,2-5.1,5v8.6h-1.8V0h1.8V10.6z"/>
		<path class="st0" d="M208.6,2.6c0,0.7-0.6,1.3-1.3,1.3s-1.3-0.6-1.3-1.3c0-0.7,0.6-1.3,1.3-1.3S208.6,1.8,208.6,2.6z M208.2,23.2
			h-1.8V8h1.8V23.2z"/>
		<path class="st0" d="M224.2,9.7h-7v8.2c0,2.6,1.4,3.7,3.4,3.7c1.3,0,2.5-0.5,3.4-1.2l0.9,1.4c-1.1,0.9-2.6,1.5-4.4,1.5
			c-3.2,0-5-1.8-5-5.4V9.7h-3.5V8h3.5V3.1h1.8V8h7V9.7z"/>
		<path class="st0" d="M241.8,15.5c0,0.3,0,0.5,0,0.8h-12.7c0.3,3.5,2.8,5.5,5.9,5.5c2.1,0,3.8-0.8,5.1-2.2l1,1.3
			c-1.9,1.9-4,2.5-6.2,2.5c-4.4,0-7.6-3.2-7.6-7.8c0-4.6,3.2-7.8,7.5-7.8C238.8,7.8,241.8,11,241.8,15.5z M229.1,14.7H240
			c-0.3-3.1-2.4-5.3-5.3-5.3C231.6,9.4,229.5,11.6,229.1,14.7z"/>
		<path class="st0" d="M258.6,10.1l-1.2,1.2c-1.2-1.2-2.7-1.9-4.4-1.9c-3.3,0-5.8,2.6-5.8,6.1c0,3.5,2.5,6.1,5.8,6.1
			c1.8,0,3.3-0.8,4.5-1.9l1.1,1.3c-1.4,1.5-3.3,2.3-5.6,2.3c-4.6,0-7.8-3.3-7.8-7.8s3.2-7.8,7.8-7.8C255.3,7.8,257.2,8.6,258.6,10.1
			z"/>
		<path class="st0" d="M273.4,9.7h-7v8.2c0,2.6,1.4,3.7,3.4,3.7c1.3,0,2.5-0.5,3.4-1.2l0.9,1.4c-1.1,0.9-2.6,1.5-4.4,1.5
			c-3.2,0-5-1.8-5-5.4V9.7h-3.5V8h3.5V3.1h1.8V8h7V9.7z"/>
		<path class="st0" d="M291.1,16.9c0,4.3-3.1,6.5-6.8,6.5c-3.7,0-6.8-2.2-6.8-6.5V8h1.8v8.7c0,3.2,2,4.9,5,4.9c2.9,0,5-1.7,5-4.9V8
			h1.8V16.9z"/>
		<path class="st0" d="M306.1,8.3l-0.5,1.8c-0.7-0.4-1.8-0.6-2.7-0.6c-2.5,0-4.3,2-4.3,5.1v8.5h-1.8V8h1.8v2.6
			c1-1.8,2.7-2.8,4.7-2.8C304.3,7.8,305.2,7.9,306.1,8.3z"/>
		<path class="st0" d="M322.6,15.5c0,0.3,0,0.5,0,0.8h-12.7c0.3,3.5,2.8,5.5,5.9,5.5c2.1,0,3.8-0.8,5.1-2.2l1,1.3
			c-1.9,1.9-4,2.5-6.2,2.5c-4.4,0-7.6-3.2-7.6-7.8c0-4.6,3.2-7.8,7.5-7.8C319.5,7.8,322.5,11,322.6,15.5z M309.9,14.7h10.8
			c-0.3-3.1-2.4-5.3-5.3-5.3C312.4,9.4,310.3,11.6,309.9,14.7z"/>
	</g>
</g>
</svg>
