<?xml version="1.0" encoding="utf-8"?>
<!-- Generator: Adobe Illustrator 24.1.3, SVG Export Plug-In . SVG Version: 6.00 Build 0)  -->
<svg version="1.1" id="圖層_1" xmlns="http://www.w3.org/2000/svg" xmlns:xlink="http://www.w3.org/1999/xlink" x="0px" y="0px"
	 width="80.9px" height="18.5px" viewBox="0 0 80.9 18.5" style="enable-background:new 0 0 80.9 18.5;" xml:space="preserve">
<style type="text/css">
	.st0{fill:none;stroke:#00416B;stroke-width:0.5;stroke-miterlimit:10;}
	.st1{fill:#00416B;}
</style>
<g>
	<g>
		<g>
			<line class="st0" x1="0.2" y1="7.3" x2="11.2" y2="18.3"/>
		</g>
		<g>
			<line class="st0" x1="0.2" y1="18.3" x2="11.2" y2="7.3"/>
		</g>
	</g>
	<g>
		<g>
			<path class="st1" d="M34.8,7.8l-0.9,0.9c-0.9-0.9-2-1.4-3.4-1.4c-2.5,0-4.5,2-4.5,4.7s1.9,4.7,4.5,4.7c1.4,0,2.6-0.6,3.4-1.4
				l0.9,1c-1,1.2-2.6,1.8-4.3,1.8c-3.5,0-5.9-2.6-5.9-6c0-3.4,2.5-6,5.9-6C32.2,6,33.7,6.6,34.8,7.8z"/>
			<path class="st1" d="M39.5,17.7h-1.4V0h1.4V17.7z"/>
			<path class="st1" d="M55.1,11.9c0,3.4-2.6,6-6,6s-6-2.6-6-6c0-3.4,2.6-6,6-6S55.1,8.5,55.1,11.9z M44.5,11.9c0,2.7,2,4.7,4.6,4.7
				c2.6,0,4.6-2,4.6-4.7s-2-4.7-4.6-4.7C46.5,7.3,44.5,9.2,44.5,11.9z"/>
			<path class="st1" d="M66.4,8.3c-0.8-0.6-2.3-1.2-3.9-1.2c-1.8,0-3.1,0.8-3.1,2.1c0,1.1,0.8,1.7,2.6,1.9l1.5,0.2
				c2.4,0.3,3.8,1.3,3.8,3.1c0,2.2-2,3.5-5,3.5c-1.7,0-3.4-0.5-4.8-1.5l0.7-1c0.9,0.7,2.1,1.3,4.1,1.3c2.1,0,3.5-0.7,3.5-2.2
				c0-1.1-0.9-1.7-2.7-1.9l-1.5-0.2c-2.6-0.3-3.8-1.4-3.8-3.1c0-2.1,1.8-3.4,4.5-3.4c1.8,0,3.5,0.6,4.5,1.3L66.4,8.3z"/>
			<path class="st1" d="M80.9,11.9c0,0.2,0,0.4,0,0.6h-9.7c0.2,2.7,2.1,4.2,4.5,4.2c1.6,0,2.9-0.6,3.9-1.7l0.8,1
				c-1.5,1.5-3.1,1.9-4.8,1.9c-3.4,0-5.8-2.4-5.8-6c0-3.5,2.5-6,5.7-6C78.5,6,80.8,8.4,80.9,11.9z M71.2,11.2h8.3
				c-0.2-2.4-1.8-4-4-4C73.1,7.2,71.4,8.9,71.2,11.2z"/>
		</g>
	</g>
</g>
</svg>
