<?xml version="1.0" encoding="utf-8"?>
<!-- Generator: Adobe Illustrator 24.1.2, SVG Export Plug-In . SVG Version: 6.00 Build 0)  -->
<svg version="1.1" id="圖層_1" xmlns="http://www.w3.org/2000/svg" xmlns:xlink="http://www.w3.org/1999/xlink" x="0px" y="0px"
	 width="205.7px" height="18.6px" viewBox="0 0 205.7 18.6" style="enable-background:new 0 0 205.7 18.6;" xml:space="preserve">
<style type="text/css">
	.st0{fill:#174167;}
</style>
<g>
	<g>
		<path class="st0" d="M16.7,3.7l-1.3,0.9c-1.3-1.9-3.5-3.1-6-3.1C5,1.5,1.7,4.7,1.7,9.3s3.4,7.8,7.7,7.8c2.5,0,4.8-1.2,6-3.1
			l1.3,0.9c-1.5,2.3-4.2,3.7-7.3,3.7C4,18.6,0,14.8,0,9.3S4,0,9.3,0C12.4,0,15.2,1.4,16.7,3.7z"/>
		<path class="st0" d="M38.2,9.3c0,5.5-4,9.3-9.3,9.3s-9.3-3.8-9.3-9.3s4-9.3,9.3-9.3S38.2,3.8,38.2,9.3z M21.2,9.3
			c0,4.6,3.4,7.8,7.7,7.8s7.7-3.1,7.7-7.8c0-4.6-3.4-7.8-7.7-7.8C24.5,1.5,21.2,4.7,21.2,9.3z"/>
		<path class="st0" d="M57.4,18.4H56L44.1,2.9v15.5h-1.6V0.2h1.4l11.9,15.5V0.2h1.6V18.4z"/>
		<path class="st0" d="M75.4,1.7h-6.6v16.7h-1.6V1.7h-6.6V0.2h14.7L75.4,1.7L75.4,1.7z"/>
		<path class="st0" d="M92.2,18.4h-1.7l-2.2-5.3h-9.5l-2.2,5.3H75l7.6-18.2h2L92.2,18.4z M79.5,11.6h8.2l-4.1-9.8L79.5,11.6z"/>
		<path class="st0" d="M110.6,3.7l-1.3,0.9c-1.3-1.9-3.5-3.1-6-3.1c-4.3,0-7.7,3.1-7.7,7.8c0,4.6,3.4,7.8,7.7,7.8
			c2.5,0,4.8-1.2,6-3.1l1.3,0.9c-1.5,2.3-4.2,3.7-7.3,3.7c-5.3,0-9.3-3.8-9.3-9.3S98,0,103.3,0C106.3,0,109.1,1.4,110.6,3.7z"/>
		<path class="st0" d="M127.4,1.7h-6.6v16.7h-1.6V1.7h-6.6V0.2h14.7L127.4,1.7L127.4,1.7z"/>
		<path class="st0" d="M151.4,11.3c0,4.9-3.3,7.3-7.4,7.3c-4.1,0-7.4-2.4-7.4-7.3V0.2h1.6v11c0,4,2.5,5.9,5.8,5.9s5.8-1.9,5.8-5.9
			v-11h1.6L151.4,11.3L151.4,11.3z"/>
		<path class="st0" d="M168.5,3.3c-1.4-1-3.3-1.8-5.7-1.8c-2.9,0-5.1,1.4-5.1,3.6c0,1.8,1.3,2.9,4.4,3.3l2,0.2
			c3.2,0.4,5.6,1.6,5.6,4.7c0,3.5-3.2,5.3-7.2,5.3c-2.7,0-5.4-1-7-2.3l0.9-1.3c1.3,1,3.6,2,6.2,2c3.1,0,5.5-1.2,5.5-3.7
			c0-2-1.6-2.9-4.6-3.3l-2.1-0.2C158.1,9.5,156,8,156,5.3c0-3.4,3-5.2,6.7-5.2c2.8,0,4.9,0.9,6.5,2L168.5,3.3z"/>
	</g>
</g>
</svg>
