<?xml version="1.0" encoding="utf-8"?>
<!-- Generator: Adobe Illustrator 24.1.2, SVG Export Plug-In . SVG Version: 6.00 Build 0)  -->
<svg version="1.1" id="圖層_1" xmlns="http://www.w3.org/2000/svg" xmlns:xlink="http://www.w3.org/1999/xlink" x="0px" y="0px"
	 width="114.1px" height="16px" viewBox="0 0 114.1 16" style="enable-background:new 0 0 114.1 16;" xml:space="preserve">
<style type="text/css">
	.st0{fill:#FFFFFF;}
</style>
<g>
	<path class="st0" d="M11.8,0.5H3.3C1.5,0.5,0,1.9,0,3.7v8.5c0,1.8,1.5,3.3,3.3,3.3h8.5c1.8,0,3.3-1.5,3.3-3.3V3.7
		C15.1,1.9,13.6,0.5,11.8,0.5z M11.8,10.1c-1.2,1.3-3.7,2.9-4.3,3.2C6.9,13.5,7,13.1,7,13c0-0.1,0.1-0.5,0.1-0.5c0-0.1,0-0.4,0-0.5
		c-0.1-0.2-0.3-0.2-0.5-0.3C4,11.4,2,9.5,2,7.3c0-2.5,2.5-4.5,5.5-4.5c3,0,5.5,2,5.5,4.5C13,8.3,12.6,9.2,11.8,10.1L11.8,10.1z"/>
	<g>
		<g>
			<path class="st0" d="M48.5,11.2h-5.7V2.9h0.7v7.7h5V11.2z"/>
			<path class="st0" d="M50.8,11.2h-0.7V2.9h0.7V11.2z"/>
			<path class="st0" d="M60.2,11.2h-0.7L54,4.1l0,7.1h-0.7V2.9H54l5.5,7.1V2.9h0.7V11.2z"/>
			<path class="st0" d="M68.5,11.2h-5.8V2.9h5.7v0.7h-5v3.1h4.9v0.7h-4.9v3.2h5V11.2z"/>
		</g>
	</g>
</g>
</svg>
