<?xml version="1.0" encoding="utf-8"?>
<!-- Generator: Adobe Illustrator 24.1.2, SVG Export Plug-In . SVG Version: 6.00 Build 0)  -->
<svg version="1.1" id="圖層_1" xmlns="http://www.w3.org/2000/svg" xmlns:xlink="http://www.w3.org/1999/xlink" x="0px" y="0px"
	 width="205.7px" height="18.6px" viewBox="0 0 205.7 18.6" style="enable-background:new 0 0 205.7 18.6;" xml:space="preserve">
<style type="text/css">
	.st0{fill:#FFFFFF;}
</style>
<g>
	<g>
		<path class="st0" d="M1.6,11v7.4H0V0.2h6.8c4,0,6.4,2,6.4,5.4c0,3.4-2.4,5.4-6.4,5.4H1.6z M1.6,1.7v7.8h5.1c3,0,4.8-1.3,4.8-3.9
			c0-2.6-1.8-3.9-4.8-3.9H1.6z"/>
		<path class="st0" d="M24.2,0.2c4,0,6.3,1.8,6.3,5.1c0,3.1-2.4,5.1-6.3,5.1h-0.7l6.9,8.1h-2l-6.8-8.1h-2.8v8.1h-1.6V0.2H24.2z
			 M18.9,1.7v7.2h5.3c3,0,4.7-1.3,4.7-3.6c0-2.3-1.7-3.6-4.7-3.6H18.9z"/>
		<path class="st0" d="M52.3,9.3c0,5.5-4,9.3-9.3,9.3c-5.3,0-9.3-3.8-9.3-9.3c0-5.5,4-9.3,9.3-9.3C48.3,0,52.3,3.8,52.3,9.3z
			 M35.3,9.3c0,4.6,3.4,7.8,7.7,7.8c4.3,0,7.7-3.1,7.7-7.8c0-4.6-3.4-7.8-7.7-7.8C38.7,1.5,35.3,4.7,35.3,9.3z"/>
		<path class="st0" d="M63.3,0.2c6.1,0,9.8,3.5,9.8,9.1c0,5.6-3.8,9.1-9.8,9.1h-6.6V0.2H63.3z M58.2,1.7v15.2h5.1
			c5.3,0,8.2-3,8.2-7.6c0-4.6-2.9-7.6-8.2-7.6H58.2z"/>
		<path class="st0" d="M91.9,11.3c0,4.9-3.3,7.3-7.4,7.3c-4.1,0-7.4-2.4-7.4-7.3V0.2h1.6v11c0,4,2.5,5.9,5.8,5.9
			c3.3,0,5.8-1.9,5.8-5.9v-11h1.6V11.3z"/>
		<path class="st0" d="M112.7,3.7l-1.3,0.9c-1.3-1.9-3.5-3.1-6-3.1c-4.3,0-7.7,3.1-7.7,7.8c0,4.6,3.4,7.8,7.7,7.8
			c2.5,0,4.8-1.2,6-3.1l1.3,0.9c-1.5,2.3-4.2,3.7-7.3,3.7c-5.3,0-9.3-3.8-9.3-9.3c0-5.5,4-9.3,9.3-9.3C108.5,0,111.3,1.4,112.7,3.7z
			"/>
		<path class="st0" d="M129.6,1.7H123v16.7h-1.6V1.7h-6.6V0.2h14.7V1.7z"/>
	</g>
</g>
</svg>
