<?xml version="1.0" encoding="utf-8"?>
<!-- Generator: Adobe Illustrator 24.1.2, SVG Export Plug-In . SVG Version: 6.00 Build 0)  -->
<svg version="1.1" id="圖層_1" xmlns="http://www.w3.org/2000/svg" xmlns:xlink="http://www.w3.org/1999/xlink" x="0px" y="0px"
	 width="105.8px" height="73.3px" viewBox="0 0 105.8 73.3" style="enable-background:new 0 0 105.8 73.3;" xml:space="preserve">
<style type="text/css">
	.st0{fill:#CCA64D;}
</style>
<g>
	<g>
		<g>
			<path class="st0" d="M5.6,72.5v-4.8c0-0.3,0.3-0.6,0.6-0.6H9v1.2H7.1v1.2H9v1.2H7.1V72H9v1.2H6.3C5.9,73.2,5.6,72.9,5.6,72.5z"/>
			<path class="st0" d="M10.5,73.2v-6.1h1.1c0.3,0,0.6,0.1,0.7,0.4l1.7,2.7c0.1,0.2,0.2,0.3,0.3,0.5c0.1,0.2,0.2,0.3,0.2,0.5
				c0-0.2-0.1-0.4-0.1-0.6c0-0.2,0-0.4,0-0.6v-2.3c0-0.3,0.2-0.5,0.5-0.5h1v6.1h-1c-0.3,0-0.6-0.2-0.8-0.4l-1.8-2.7
				c-0.1-0.1-0.2-0.3-0.2-0.4c-0.1-0.2-0.2-0.3-0.3-0.5c0.1,0.2,0.1,0.4,0.1,0.5c0,0.2,0,0.4,0,0.6v2.5c0,0.2-0.2,0.4-0.4,0.4H10.5z
				"/>
			<path class="st0" d="M23.6,73.2l2.1-6.1h1.4c0.3,0,0.5,0.2,0.6,0.4l1.9,5.7h-1.6l-0.2-0.9h-2.3l-0.2,0.9H23.6z M25.8,71.2h1.6
				l-0.8-2.8L25.8,71.2z"/>
			<path class="st0" d="M23.2,67.1h-3.8v1.2h1.4v3.8c0,0.8-0.5,1-0.5,1h0.5h0.4h1.1v-4.8h1.4v-0.8C23.7,67.3,23.5,67.1,23.2,67.1z"
				/>
			<g>
				<path class="st0" d="M3.8,67.1H2l-0.6,1.2h1.4v3.5c0,0-1.8,0-1.9,0c-0.1,0-0.1,0-0.1,0c-0.5,0-0.5,0.4-0.6,0.5
					C0.2,72.7,0,73.3,0,73.3h3.5c0.5,0,0.8-0.4,0.8-0.8v-1.6v-3.3C4.3,67.4,4.1,67.1,3.8,67.1z"/>
			</g>
		</g>
	</g>
	<g>
		<g>
			<path class="st0" d="M29.4,39.7l-1.9-4.2h4.8l1.3,2.6c0.4,0.7-0.2,1.6-1,1.6H29.4z M50.4,58.2H38.1c-1.7,0-3.3-0.5-4.6-1.5l0,0
				l-0.9,1.5h-5l1.1-1.9c0.9-1.5,1.4-3.3,1.4-5v-0.9h-2.1v-0.7c0-1.1,0.3-2.1,0.8-3l1.6-2.9h-2.6v-2.4H34v2.7L32.2,48H34v6.5l0,0
				c1.2,0.9,2.7,1.4,4.2,1.4h2.2v-1.6H35v-2.4h5.3v-1.1h-4.5v-2.3h4.5v-1.1h-5v-2.3h1.8l-0.7-2.4H35v-2.4h5.2v-1.4h-4.6v-2.2h4.6
				v-1.7h4.7v1.7h4.8v1c0,0.7-0.5,1.2-1.2,1.2h-3.6v1.4h5.5v2.4h-1.3l-0.8,2.4H50v2.3H45v1.1h4.4v2.3H45v1.1h5.4v2.4H45v1.6h5.4
				V58.2z M40.1,42.8l0.7,2.4h3.8l0.8-2.4H40.1z"/>
			<path class="st0" d="M55.5,58.2v-2.6h3.7l1.4-9.3h-4.4v-2.6H61l0.7-5.3h-6.2v-2.6h22.3v0.5c0,1.1-0.9,2.1-2.1,2.1h-9l-0.8,5.3
				h8.8c1,0,1.7,0.8,1.7,1.7v10.1h1.7v2.6H55.5z M71.5,46.3h-6l-1.4,9.3h7.3V46.3z"/>
			<path class="st0" d="M102.4,44.1v-1.9c0.7,0.2,1.2,0.3,1.5,0.4c0.4,0.1,0.9,0.2,1.6,0.3l0.4,0.1v-2.4c0-0.7-0.5-1.4-1.2-1.6
				c-1.3-0.3-3.2-0.8-4.3-1.3c-1.6-0.8-2.9-1.8-3.8-3l-0.1-0.1h-3.8l-0.1,0.2c-1,1.3-2.2,2.4-3.7,3.2c-1,0.5-2.9,0.9-4.2,1.1
				c-0.8,0.1-1.4,0.8-1.4,1.6v2.3l0.4-0.1c0.6-0.1,1.2-0.2,1.7-0.3c0.4-0.1,0.8-0.2,1.4-0.3v1.8h6v2h-8.9v3.1h8.9V55h-2.3
				c-0.3-1.3-0.8-2.6-1.4-3.8L88.9,51h-2.8c-0.4,0-0.7,0.4-0.5,0.8c0.4,0.9,1.1,2.5,1.3,3.3h-3.7v3.2h22.6V55h-3.4l1.2-3.3
				c0.1-0.4-0.1-0.7-0.5-0.7h-2.9l-1.5,4h-2.4v-5.8h8.9v-3.1h-8.9v-2H102.4z M93.7,38.5c0.5-0.5,1.2-0.5,1.7,0
				c0.5,0.5,1.1,0.9,1.7,1.3c0.6,0.4,1.3,0.8,1.9,1.1h-9c0.7-0.4,1.4-0.7,2-1.2C92.7,39.4,93.2,39,93.7,38.5z"/>
			<g>
				<path class="st0" d="M20,51.9c-0.5-0.9-0.6-1.4-0.2-2.4l2.7-8.2h0.9v-1.5c0-0.9-0.8-1.7-1.7-1.7h-5.3l1-2.5h-2.8l-3.2,7.8h2.7
					l0.6-1.5c0.2-0.4,0.6-0.7,1.1-0.7h2.8l-2.5,6.8l-1.8-2.9h-2.8v1.3l1.9,3c0.9,1.5,0.9,2.5,0.5,3.5l-2.5,5.1h3.8l1.8-3.8l2.5,3.8
					h4.5L20,51.9z"/>
				<rect x="11.5" y="43.5" class="st0" width="0.3" height="0"/>
				<path class="st0" d="M8.9,53.2v-6.7h1.6v-2.4H8.9v-5.7h2.9v-0.7c0-0.9-0.7-1.6-1.6-1.6H0.2v2.4h5V54l-1.8,0.4V41.7H1.9
					c-0.7,0-1.3,0.6-1.3,1.3v12L0,55.1v2.5L11.4,55v-2.5L8.9,53.2z"/>
			</g>
		</g>
	</g>
	<g>
		<path class="st0" d="M48.1,71.4c0,0.2,0.1,0.4,0.2,0.5c0.1,0.1,0.3,0.2,0.6,0.2c0.2,0,0.4-0.1,0.5-0.2c0.1-0.1,0.2-0.2,0.2-0.4
			c0-0.2-0.1-0.3-0.2-0.4c-0.1-0.1-0.4-0.2-0.8-0.4c0,0-0.1,0-0.2-0.1c-0.5-0.2-0.8-0.3-1.1-0.5c-0.2-0.2-0.4-0.3-0.5-0.6
			c-0.1-0.2-0.2-0.5-0.2-0.8c0-0.6,0.2-1,0.6-1.3c0.4-0.3,0.9-0.5,1.5-0.5c0.7,0,1.2,0.2,1.6,0.5c0.4,0.3,0.6,0.8,0.6,1.4l-1.4,0
			c0-0.2-0.1-0.4-0.2-0.5c-0.1-0.1-0.3-0.2-0.5-0.2c-0.2,0-0.4,0.1-0.5,0.2c-0.1,0.1-0.2,0.2-0.2,0.4c0,0.3,0.3,0.5,0.9,0.7
			c0.1,0,0.2,0.1,0.3,0.1c0,0,0.1,0,0.2,0.1c0.6,0.2,0.9,0.4,1.2,0.7c0.1,0.1,0.2,0.3,0.3,0.5c0.1,0.2,0.1,0.4,0.1,0.6
			c0,0.6-0.2,1.1-0.6,1.4c-0.4,0.4-1,0.5-1.6,0.5c-0.6,0-1.2-0.2-1.5-0.5c-0.4-0.3-0.6-0.8-0.6-1.4L48.1,71.4z"/>
		<path class="st0" d="M53.2,73.2v-6.1h1.6v6.1H53.2z"/>
		<path class="st0" d="M57.3,73.2v-6.1h1.6l2,3.1c0.1,0.2,0.2,0.3,0.3,0.5c0.1,0.2,0.2,0.3,0.3,0.5c0-0.2-0.1-0.4-0.1-0.6
			c0-0.2,0-0.4,0-0.6v-2.8h1.5v6.1h-1.5l-2.1-3.1c-0.1-0.1-0.2-0.3-0.2-0.4c-0.1-0.2-0.2-0.3-0.3-0.6c0.1,0.2,0.1,0.4,0.1,0.5
			c0,0.2,0,0.4,0,0.6v3H57.3z"/>
		<path class="st0" d="M69.4,68.9c-0.2-0.2-0.4-0.3-0.6-0.4c-0.2-0.1-0.4-0.1-0.7-0.1c-0.5,0-0.9,0.2-1.2,0.5
			c-0.3,0.3-0.5,0.8-0.5,1.3s0.2,1,0.5,1.3c0.3,0.3,0.7,0.5,1.2,0.5c0.3,0,0.5-0.1,0.7-0.2c0.2-0.1,0.4-0.3,0.5-0.4l1,1
			c-0.3,0.3-0.6,0.5-1,0.7c-0.4,0.2-0.8,0.2-1.3,0.2c-0.5,0-0.9-0.1-1.3-0.2c-0.4-0.2-0.7-0.4-1-0.7c-0.3-0.3-0.5-0.6-0.7-1
			C65,71,65,70.6,65,70.1c0-0.5,0.1-0.9,0.2-1.3c0.2-0.4,0.4-0.7,0.7-1c0.3-0.3,0.6-0.5,1-0.7c0.4-0.1,0.8-0.2,1.3-0.2
			c0.5,0,0.9,0.1,1.3,0.2c0.4,0.2,0.7,0.4,1,0.7L69.4,68.9z"/>
		<path class="st0" d="M72.6,73.2v-6.1H76v1.2h-1.9v1.3H76v1.2h-1.9V72H76v1.2H72.6z"/>
		<path class="st0" d="M83.5,73.2v-4.3l-1.2,0.5v-1.3l2.4-1.2h0.1v6.2H83.5z"/>
		<path class="st0" d="M89.8,70.8C89.8,70.8,89.8,70.8,89.8,70.8c-0.1,0-0.1,0-0.2,0c-0.6,0-1-0.2-1.3-0.5C88,70,87.8,69.5,87.8,69
			c0-0.6,0.2-1.1,0.6-1.4c0.4-0.4,0.9-0.5,1.5-0.5c0.6,0,1.1,0.2,1.5,0.6c0.4,0.4,0.6,0.9,0.6,1.5c0,0.3-0.1,0.6-0.2,0.9
			c-0.1,0.3-0.3,0.6-0.5,1l-1.5,2.3h-1.6L89.8,70.8z M89.9,69.7c0.2,0,0.4-0.1,0.5-0.2c0.1-0.1,0.2-0.3,0.2-0.5
			c0-0.2-0.1-0.4-0.2-0.6c-0.1-0.1-0.3-0.2-0.5-0.2c-0.2,0-0.4,0.1-0.5,0.2s-0.2,0.3-0.2,0.6s0.1,0.4,0.2,0.6
			C89.5,69.7,89.7,69.7,89.9,69.7z"/>
		<path class="st0" d="M94.2,73.2l2.1-4.9h-2.2v-1.3h4.1v0.2l-2.5,5.9H94.2z"/>
		<path class="st0" d="M102.2,73.2v-1.3h-2.3v-1.2l1.9-3.7h1.8v3.7h0.5v1.2h-0.5v1.3H102.2z M101,70.8h1.2v-1.7c0-0.1,0-0.2,0-0.3
			c0-0.1,0-0.2,0-0.4L101,70.8z"/>
	</g>
	<rect x="36.8" y="67" class="st0" width="1.4" height="6.3"/>
	<g>
		<path class="st0" d="M53.3,0h-6.5l-1,0.1l-5.4,6.2h4.4l-3.6,11.3h-6.6c-1,0-1.9,0.6-2.2,1.6l-2.5,4.7h11.4c2.6,0,4.9-1.7,5.7-4.2
			l0.7-2.1l3.6-11.3h-3.4L53.3,0z"/>
		<path class="st0" d="M65.6,0h-4.7c-1.1,0-2,0.7-2.3,1.7l-1.5,4.6l-4.5,14l0,0c-1.1,3.3-2.5,3.6-2.5,3.6h1.3h1.4h2.8
			c1.4,0,2.7-0.9,3.1-2.3l4.8-15.3h6.6c1,0,1.9-0.6,2.2-1.6L74.9,0H65.6z"/>
	</g>
</g>
</svg>
