<?xml version="1.0" encoding="utf-8"?>
<!-- Generator: Adobe Illustrator 24.1.2, SVG Export Plug-In . SVG Version: 6.00 Build 0)  -->
<svg version="1.1" id="圖層_1" xmlns="http://www.w3.org/2000/svg" xmlns:xlink="http://www.w3.org/1999/xlink" x="0px" y="0px"
	 width="68.4px" height="11.3px" viewBox="0 0 68.4 11.3" style="enable-background:new 0 0 68.4 11.3;" xml:space="preserve">
<style type="text/css">
	.st0{fill:#CCA64D;}
	.st1{fill:none;stroke:#CCA64D;stroke-width:0.5;stroke-miterlimit:10;}
</style>
<g>
	<path class="st0" d="M0,0.6h1.1l2.3,5.9C3.7,7.2,4,7.9,4.3,8.7h0.1c0.3-0.7,0.6-1.5,0.8-2.2l2.3-5.9h1.1v10H7.9V4
		c0-0.8,0.1-1.9,0.1-2.7H7.9L7,3.5l-2.4,6H4l-2.4-6L0.7,1.3H0.6c0,0.8,0.1,1.9,0.1,2.7v6.6H0V0.6z"/>
	<path class="st0" d="M11.9,0.6H18v0.6h-5.3V5h4.5v0.6h-4.5V10h5.5v0.6h-6.2V0.6z"/>
	<path class="st0" d="M20.6,0.6h0.8l4.7,7.1l1.3,2h0.1c0-1-0.1-2-0.1-2.9V0.6H28v10h-0.8l-4.7-7.1l-1.3-2h-0.1c0,1,0.1,1.9,0.1,2.8
		v6.2h-0.7V0.6z"/>
	<path class="st0" d="M31.3,6.7V0.6H32v6.1c0,2.7,1.4,3.5,3,3.5c1.6,0,3-0.8,3-3.5V0.6h0.7v6.2c0,3.1-1.8,4-3.8,4S31.3,9.9,31.3,6.7
		z"/>
</g>
<g>
	<line class="st1" x1="52.8" y1="0.4" x2="68.4" y2="0.4"/>
	<line class="st1" x1="52.8" y1="5.7" x2="68.4" y2="5.7"/>
	<line class="st1" x1="52.8" y1="10.9" x2="68.4" y2="10.9"/>
</g>
</svg>
