<?xml version="1.0" encoding="utf-8"?>
<!-- Generator: Adobe Illustrator 24.1.3, SVG Export Plug-In . SVG Version: 6.00 Build 0)  -->
<svg version="1.1" id="圖層_1" xmlns="http://www.w3.org/2000/svg" xmlns:xlink="http://www.w3.org/1999/xlink" x="0px" y="0px"
	 width="173.7px" height="41px" viewBox="0 0 173.7 41" style="enable-background:new 0 0 173.7 41;" xml:space="preserve">
<style type="text/css">
	.st0{fill:#003D71;}
	.st1{fill:none;stroke:#003D71;stroke-width:0.5;stroke-miterlimit:10;}
</style>
<g>
	<g>
		<g>
			<g>
				<path class="st0" d="M39.2,21.3v8.1h-1.6v-7.6c0-2.7-1.6-4.3-4.2-4.3c-2.5,0-4.4,1.8-4.4,4.4v7.5h-1.6v-7.6
					c0-2.7-1.5-4.3-4.2-4.3c-2.5,0-4.4,1.8-4.4,4.4v7.5h-1.6V16.2h1.6v2.3c1-1.8,2.9-2.5,4.7-2.5c2.5,0,4.3,1.1,5.1,3.1
					c1-2.2,3.1-3.1,5.1-3.1C36.9,16,39.2,18,39.2,21.3z"/>
				<path class="st0" d="M56.8,22.8c0,3.9-3,6.8-6.9,6.8s-6.8-2.9-6.8-6.8c0-3.9,2.9-6.8,6.8-6.8S56.8,18.9,56.8,22.8z M44.7,22.8
					c0,3.1,2.3,5.3,5.2,5.3c3,0,5.2-2.2,5.2-5.3c0-3.1-2.3-5.3-5.2-5.3C46.9,17.5,44.7,19.7,44.7,22.8z"/>
				<path class="st0" d="M68.9,16.5L68.5,18c-0.6-0.3-1.5-0.5-2.3-0.5c-2.2,0-3.8,1.8-3.8,4.4v7.4h-1.6V16.2h1.6v2.2
					c0.9-1.5,2.3-2.5,4.1-2.5C67.4,16,68.2,16.1,68.9,16.5z"/>
				<path class="st0" d="M83.3,22.7c0,0.2,0,0.5,0,0.7H72.2c0.2,3.1,2.4,4.8,5.1,4.8c1.8,0,3.3-0.7,4.5-1.9l0.9,1.1
					c-1.7,1.7-3.5,2.2-5.4,2.2c-3.9,0-6.6-2.8-6.6-6.8c0-4,2.8-6.8,6.5-6.8C80.6,16,83.2,18.8,83.3,22.7z M72.2,22h9.4
					c-0.2-2.7-2.1-4.6-4.6-4.6C74.4,17.4,72.5,19.3,72.2,22z"/>
			</g>
		</g>
	</g>
	<rect x="0.2" y="0.2" class="st1" width="173.2" height="40.5"/>
</g>
</svg>
