<?xml version="1.0" standalone="no"?>
<!DOCTYPE svg PUBLIC "-//W3C//DTD SVG 20010904//EN"
 "http://www.w3.org/TR/2001/REC-SVG-20010904/DTD/svg10.dtd">
<svg version="1.0" xmlns="http://www.w3.org/2000/svg"
 width="700.000000pt" height="700.000000pt" viewBox="0 0 700.000000 700.000000"
 preserveAspectRatio="xMidYMid meet">
<metadata>
Created by potrace 1.11, written by Peter Selinger 2001-2013
</metadata>
<g transform="translate(0.000000,700.000000) scale(0.100000,-0.100000)"
fill="#000000" stroke="none">
<path d="M0 3500 l0 -3500 3500 0 3500 0 0 3500 0 3500 -3500 0 -3500 0 0
-3500z m3620 1745 c0 -3 -176 -211 -391 -463 l-391 -457 246 -3 c135 -1 246
-5 246 -8 0 -3 -70 -225 -156 -493 -529 -1652 -502 -1575 -588 -1694 -142
-198 -360 -334 -591 -367 -75 -10 -1795 -14 -1795 -4 0 3 73 142 162 308 88
165 180 339 204 386 47 96 106 158 182 193 46 22 58 22 573 25 l526 3 262 817
c144 449 261 823 261 830 0 9 -70 12 -315 12 l-316 0 391 454 c389 453 391
455 433 459 65 6 1057 8 1057 2z m3159 -37 c-12 -24 -95 -178 -183 -343 -89
-165 -168 -315 -176 -334 -27 -67 -86 -128 -157 -163 l-68 -33 -523 -5 -524
-5 -353 -1125 c-206 -657 -367 -1152 -386 -1190 -62 -121 -191 -220 -327 -249
-34 -7 -200 -11 -474 -11 l-422 0 45 28 c103 66 211 231 283 430 14 41 195
601 402 1245 206 645 407 1269 445 1387 76 237 101 283 185 341 104 72 40 68
1207 68 l1047 1 -21 -42z"/>
</g>
</svg>
